<svg width="550" height="118" viewBox="0 0 550 118" fill="none" xmlns="http://www.w3.org/2000/svg">
<mask id="mask0_419_172" style="mask-type:luminance" maskUnits="userSpaceOnUse" x="0" y="0" width="550" height="119">
<path d="M550 0H0V118.004H550V0Z" fill="white"/>
</mask>
<g mask="url(#mask0_419_172)">
<path d="M550.003 81.5515C550.003 100.826 532.738 116.504 512.025 116.504H501.55V106.318H512.027C519.256 106.343 526.214 103.682 531.44 98.8943C533.927 96.6749 535.914 93.9916 537.28 91.0092C538.645 88.0268 539.36 84.8084 539.381 81.5515C539.381 69.5207 529.435 59.0028 516.247 57.0856L508.581 55.9708L507.35 48.6347C506.333 42.8171 503.167 37.5443 498.429 33.7799C494.013 30.2756 488.574 28.166 482.859 27.7404C477.143 27.3147 471.43 28.5939 466.502 31.4024L457.473 36.6057L451.968 27.9958C444.835 16.8445 432.183 10.1866 418.122 10.1866C398.169 10.1866 381.64 23.9334 379.034 41.7016H368.32C370.962 18.3015 392.289 0.000976562 418.122 0.000976562C435.998 0.000976562 452.088 8.69599 461.026 22.6769C466.976 19.2576 473.787 17.4592 480.725 17.4755C499.465 17.4755 515.033 30.3043 517.84 47.0155C535.802 49.629 550.005 64.1155 550.005 81.5515M454.73 117.489V88.0256L486.047 93.8978V84.7202L454.73 78.848V57.9526H444.951V117.489L454.73 117.489ZM468.209 59.4401H475.318V69.9815H468.209V59.4401ZM477.685 59.4401H484.793V69.9815H477.685V59.4401ZM328.821 59.4537H372.827V68.168H328.821V59.4537ZM433.91 70.1641V78.7492C433.913 84.2931 432.972 89.8002 431.124 95.0536C429.374 99.7508 427.046 103.472 424.216 106.109C421.863 108.301 418.668 110.406 414.448 112.541C411.547 114.043 408.506 115.282 405.365 116.241L405.264 116.273C403.052 116.997 400.782 117.543 398.476 117.908L397.778 118.005V109.147L398.287 109.064C401.241 108.569 404.131 107.771 406.906 106.684C410.011 105.415 412.906 103.718 415.499 101.647C418.476 99.2649 420.756 96.1813 422.113 92.6991C423.657 88.9503 424.466 84.1811 424.514 78.5244V76.5494H394.031V88.2423H384.709V70.1641C384.709 69.8487 384.774 69.5364 384.899 69.245C385.025 68.9535 385.21 68.6887 385.442 68.4655C385.675 68.2424 385.951 68.0653 386.255 67.9445C386.559 67.8237 386.885 67.7614 387.214 67.7612H404.645V57.9526H413.972V67.76H431.403C431.733 67.7599 432.059 67.822 432.363 67.9427C432.667 68.0634 432.943 68.2404 433.176 68.4636C433.409 68.6867 433.594 68.9517 433.72 69.2432C433.846 69.5348 433.911 69.8473 433.91 70.1629M318.641 67.968V73.9763C318.641 80.6783 316.348 87.8262 314.384 91.9116C312.391 96.2378 309.606 100.188 306.163 103.575C303.23 106.416 299.928 108.883 296.337 110.915C293.32 112.608 290.178 114.089 286.936 115.344C284.397 116.329 281.796 117.156 279.147 117.821L278.384 118.003V108.62L278.818 108.495C281.956 107.57 285.017 106.418 287.973 105.05C291.313 103.429 294.413 101.391 297.193 98.9881C300.43 96.2484 303.15 92.9946 305.234 89.3696C307.325 85.7754 308.634 80.7522 309.122 74.4297H286.97C283.77 79.3361 280.807 83.0837 278.157 85.5723C276.037 87.6464 273.715 89.522 271.223 91.1738L270.277 91.7613V80.3143L270.478 80.141C272.357 78.4579 274.057 76.5994 275.552 74.593C277.298 72.2686 278.787 69.7767 279.996 67.1575C281.29 64.3649 282.237 61.4361 282.817 58.4315L282.911 57.9526H292.582L292.421 58.665C291.907 60.8946 291.33 63.2119 290.703 65.5663H316.134C316.463 65.5665 316.789 65.6288 317.093 65.7496C317.396 65.8705 317.673 66.0475 317.905 66.2707C318.138 66.4938 318.322 66.7586 318.448 67.0501C318.574 67.3415 318.638 67.6539 318.638 67.9693M376.187 76.0867V81.8005C376.187 85.6512 374.927 90.9657 373.4 95.0548C371.646 99.752 369.318 103.473 366.489 106.11C363.774 108.66 360.693 110.825 357.339 112.539C354.439 114.041 351.399 115.28 348.259 116.24C345.806 116.982 343.297 117.54 340.754 117.907L340.057 118.002V109.147L340.566 109.064C343.52 108.569 346.409 107.771 349.185 106.684C352.289 105.415 355.183 103.718 357.775 101.647C360.753 99.2653 363.033 96.1815 364.39 92.6991C365.596 89.4258 366.332 86.0102 366.576 82.5465H326.684V73.6838H373.682C374.011 73.6837 374.337 73.7458 374.642 73.8665C374.946 73.9872 375.222 74.1642 375.455 74.3874C375.688 74.6105 375.872 74.8755 375.998 75.167C376.124 75.4586 376.189 75.7711 376.189 76.0867" fill="#5079B5"/>
<path d="M89.9107 79.2109H70.8262V84.9397H89.9107V79.2109Z" fill="#304266"/>
<path d="M71.0117 117.488H85.1014C89.1048 117.25 90.0671 115.728 90.0671 111.168V98.855H71.0117V117.488ZM77.4568 104.584H83.5572V111.167H77.4568V104.584Z" fill="#304266"/>
<path d="M89.9107 88.9531H70.8262V94.4179H89.9107V88.9531Z" fill="#304266"/>
<path d="M89.7388 60.7749H70.6543V66.1081H89.7388V60.7749Z" fill="#304266"/>
<path d="M58.0544 93.4011V59.4526H5.00198V91.921C5.07002 100.829 4.60086 103.725 0 106.657V118.004C12.1715 113.561 14.437 108.216 14.0508 88.7014V67.4197H48.5248V97.3629C48.3991 107.678 53.5436 115.155 63.0538 118.004V105.893C58.8696 104.147 58.1166 100.862 58.0518 93.4042" fill="#304266"/>
<path d="M38.9325 104.169L39.4127 107.788H34.3408V101.105H39.4127C43.0156 101.105 44.4827 99.5391 44.4827 95.7046V82.1429H34.3408V77.9339L35.2914 77.8668C39.5987 77.5613 40.5519 77.4855 44.6227 76.9396V70.1792C36.0252 71.4157 27.3371 71.9811 18.6441 71.8698V78.2966L18.9681 78.3103C20.117 78.3544 21.0216 78.3892 21.6586 78.3892C22.8898 78.3892 24.7114 78.327 27.0831 78.1948L28.1691 78.1327V82.1404H18.6441V101.105H28.1698V108.031C28.1698 108.031 17.8736 108.119 15.9023 108.077V115.875L19.9057 115.822L26.9586 115.558L36.29 115.165L41.1688 115.003L41.5861 117.468H49.0771C48.3727 113.953 47.0287 108.442 45.8241 104.168L38.9325 104.169ZM34.3408 88.7269H38.385V95.2426H34.3408V88.7269ZM28.1704 95.2426H24.1269V88.7269H28.1711L28.1704 95.2426Z" fill="#304266"/>
<path d="M188.508 103.65L189.078 102.839C193.16 97.0358 196.042 89.1656 197.06 81.0941H184.983V72.119H190.608V76.2311H198.144V64.8568H185.601V57.9536H176.827V64.8568H163.464V94.1913C163.399 101.555 162.383 104.066 161.284 105.748C160.572 106.81 159.764 107.81 158.871 108.738V117.975C163.357 115.965 167.891 110.722 169.006 107.875C170.121 105.028 170.406 103.437 170.939 98.1867L171.263 94.9695L172.856 97.7842C173.964 99.9613 175.335 102.006 176.94 103.877L177.588 104.67L176.796 105.32C173.702 107.862 172.848 108.375 170.316 109.196V118.006C175.868 116.26 178.153 114.872 182.576 110.825L183.196 110.256L183.876 110.753C188.987 114.492 192.764 116.255 198.827 117.638V108.688C195.354 107.887 192.104 106.373 189.302 104.25L188.508 103.65ZM171.417 71.8644H177.314V80.6805H171.417V71.8644ZM186.6 89.3258C185.796 92.6101 185.027 93.9143 183.125 97.106L182.385 98.3481L181.455 97.2402C179.406 94.9278 177.74 92.3261 176.518 89.5271L175.809 87.7415H186.911L186.6 89.3258Z" fill="#304266"/>
<path d="M240.431 87.6309H259.418V82.6934H240.431V78.875H261.062V73.8052H240.431V70.1191H230.149V73.8058H210.136V78.875H230.15V82.6934H211.301V87.6309H230.082V91.2524H205.99V97.3103H263.7V91.2524H240.431V87.6309Z" fill="#304266"/>
<path d="M150.9 88.2918L151.337 87.5676C155.786 80.2017 156.846 77.9782 158.254 73.0097V67.156H152.085V57.9536H143.998V67.156H138.101V74.5567H149.081L148.764 75.8101C147.238 81.8879 142.561 88.8234 136.801 93.6019V104.486C138.749 102.908 140.558 101.178 142.208 99.3146L143.998 97.383V117.49H152.085V96.4558L158.803 103.65V94.9335L156.859 93.2566L156.603 93.0436L158.806 89.3793V82.2487L153.569 90.509L150.9 88.2918Z" fill="#304266"/>
<path d="M209.82 117.482L251.196 117.489C254.78 117.489 256.922 116.957 258.151 115.769C259.362 114.594 259.888 112.568 259.857 109.185V100.798H209.82V117.482ZM219.759 105.806H249.78V111.757H219.759V105.806Z" fill="#304266"/>
<path d="M239.847 61.6902V57.9507H229.43V61.6902H205.99V70.4473H215.516V67.6158H254.102V70.4467H263.699V61.6895L239.847 61.6902Z" fill="#304266"/>
<path d="M115.834 68.61H128.082V60.71H95.2225V68.61H107.474V93.1691H93.3906V100.542H107.474V117.471H115.833V100.542H129.919V93.1691H115.834V68.61Z" fill="#304266"/>
<path d="M90.8578 69.9922H68.9766V75.5887H90.8578V69.9922Z" fill="#304266"/>
<path d="M124.784 87.242L126.162 82.0684C127.266 77.7526 127.378 77.2719 128.087 74.0088H120.827C119.683 80.2692 119.059 83.0143 117.984 87.242H124.784Z" fill="#304266"/>
<path d="M105.33 87.242C104.259 83.0143 103.632 80.2692 102.488 74.0088H95.2305C95.94 77.2719 96.0483 77.7532 97.1563 82.0684L98.534 87.242H105.33Z" fill="#304266"/>
</g>
</svg>
