<?xml version="1.0" encoding="UTF-8"?>
<svg id="_レイヤー_2" data-name="レイヤー 2" xmlns="http://www.w3.org/2000/svg" viewBox="0 0 260 260">
  <defs>
    <style>
      .cls-1 {
        fill: #757a86;
      }

      .cls-1, .cls-2 {
        stroke-width: 0px;
      }

      .cls-2 {
        fill: #1d212d;
      }
    </style>
  </defs>
  <g id="_レイヤー_1-2" data-name="レイヤー 1">
    <g>
      <rect class="cls-2" width="260" height="260"/>
      <path class="cls-1" d="m20,161.58c2.56-29.74,27.57-53.15,57.95-53.15.74,0,1.49.01,2.25.04,13.46-16.37,33.78-26.04,55.04-26.04,27.46,0,52.23,15.65,64.09,40.17,20.52,3.05,36.78,18.96,40.67,38.98h-12.71c-3.89-14.7-16.8-25.95-32.58-27.06l-3.79-.27-1.48-3.5c-9.22-21.85-30.5-35.97-54.21-35.97-18.78,0-36,8.66-47.22,23.76l-2.08,2.8-3.48-.34c-1.52-.15-3.03-.22-4.5-.22-23.56,0-43.02,17.88-45.53,40.79h-12.42Z"/>
    </g>
  </g>
</svg>