<?xml version="1.0" encoding="UTF-8"?>
<svg id="_レイヤー_2" data-name="レイヤー 2" xmlns="http://www.w3.org/2000/svg" viewBox="0 0 512 512">
  <defs>
    <style>
      .cls-1 {
        fill: #757a86;
      }

      .cls-1, .cls-2 {
        stroke-width: 0px;
      }

      .cls-2 {
        fill: #1d212d;
      }
    </style>
  </defs>
  <g id="_レイヤー_1-2" data-name="レイヤー 1">
    <g>
      <rect class="cls-2" width="512" height="512"/>
      <path class="cls-1" d="m36,318.16c5.12-59.47,55.13-106.31,115.91-106.31,1.48,0,2.98.03,4.49.09,26.92-32.74,67.57-52.09,110.07-52.09,54.93,0,104.46,31.3,128.18,80.34,41.04,6.1,73.57,37.91,81.35,77.97h-25.42c-7.79-29.41-33.59-51.89-65.15-54.11l-7.58-.53-2.95-7c-18.44-43.7-61-71.93-108.43-71.93-37.57,0-71.99,17.32-94.45,47.52l-4.17,5.61-6.95-.68c-3.03-.29-6.06-.44-9-.44-47.13,0-86.04,35.77-91.07,81.57h-24.84Z"/>
    </g>
  </g>
</svg>